# xmcd
#
# Track frame offsets:
#	150
#	9429
#	21292
#	33559
#	45001
#	55829
#	67304
#	78029
#	92417
#	102642
#	112024
#	122406
#	134096
#	146529
#	157868
#	169421
#	178770
#	190639
#	201879
#	214100
#	226386
#	238678
#	252574
#	264494
#
# Disc length: 3694 seconds
#
# Revision: 0
# Processed by: cddbd v1.5.2PL0 Copyright (c) Steve Scherf et al.
# Submitted via: EZCDAudioConverter 4.0.5.1
#
DISCID=4f0e6c18
DTITLE=Kitty Wells - Kitty's Choise+Seasons Of My Heart
DYEAR=1960
DGENRE=Country
TTITLE0=Sugartime
TTITLE1=Dark Moon
TTITLE2=Your Cheatin' Heart
TTITLE3=Beautiful Brown Eyes
TTITLE4=Seven Lonely Days
TTITLE5=Half As Much
TTITLE6=Jambalaya (On The Bayou)
TTITLE7=Jealous Heart
TTITLE8=When The Moon Comes Over The Mountain
TTITLE9=Bonaparte's Retreat
TTITLE10=Tennessee Waltz
TTITLE11=My Happiness
TTITLE12=Seasons Of My Heart
TTITLE13=The Only One I Ever Loved I Lost
TTITLE14=Most Of All
TTITLE15=Lonely Is A Word
TTITLE16=Fickle Fun
TTITLE17=The Hands You're Holding Now
TTITLE18=Send Me The Pillow That You Dream On
TTITLE19=Amigo's Guitar
TTITLE20=Let Me Help You Forget
TTITLE21=I'll Be All Smiles Tonight
TTITLE22=The Other Cheek
TTITLE23=If I Had The Right To Do You Wrong
EXTD=
EXTT0=
EXTT1=
EXTT2=
EXTT3=
EXTT4=
EXTT5=
EXTT6=
EXTT7=
EXTT8=
EXTT9=
EXTT10=
EXTT11=
EXTT12=
EXTT13=
EXTT14=
EXTT15=
EXTT16=
EXTT17=
EXTT18=
EXTT19=
EXTT20=
EXTT21=
EXTT22=
EXTT23=
PLAYORDER=
